<?xml version="1.0" encoding="UTF-8"?>
<svg xmlns="http://www.w3.org/2000/svg" xmlns:xlink="http://www.w3.org/1999/xlink" width="112.5pt" height="112.499997pt" viewBox="0 0 112.5 112.499997" version="1.2">
<defs>
<clipPath id="clip1">
  <path d="M 2.304688 2.101562 L 90 2.101562 L 90 110.101562 L 2.304688 110.101562 Z M 2.304688 2.101562 "/>
</clipPath>
<clipPath id="clip2">
  <path d="M 92 47 L 110.304688 47 L 110.304688 66 L 92 66 Z M 92 47 "/>
</clipPath>
</defs>
<g id="surface1">
<path style=" stroke:none;fill-rule:nonzero;fill:rgb(100%,50.979614%,43.139648%);fill-opacity:1;" d="M 101.40625 49.441406 C 105.242188 49.441406 108.34375 52.542969 108.34375 56.378906 C 108.34375 60.210938 105.242188 63.316406 101.40625 63.316406 C 97.574219 63.316406 94.472656 60.210938 94.472656 56.378906 C 94.472656 52.542969 97.574219 49.441406 101.40625 49.441406 "/>
<path style=" stroke:none;fill-rule:nonzero;fill:rgb(90.19928%,91.369629%,92.939758%);fill-opacity:1;" d="M 77.128906 104.933594 L 59.789062 108.402344 L 59.789062 87.59375 L 70.296875 85.492188 L 77.128906 84.125 L 77.128906 91.0625 C 75.21875 91.0625 73.664062 92.625 73.664062 94.527344 L 73.664062 97.996094 C 73.664062 99.90625 75.21875 101.464844 77.128906 101.464844 L 77.128906 104.933594 "/>
<path style=" stroke:none;fill-rule:nonzero;fill:rgb(90.19928%,91.369629%,92.939758%);fill-opacity:1;" d="M 52.851562 87.59375 L 52.851562 108.402344 L 35.511719 104.933594 L 35.511719 101.464844 C 37.421875 101.464844 38.980469 99.90625 38.980469 97.996094 L 38.980469 94.527344 C 38.980469 92.625 37.421875 91.0625 35.511719 91.0625 L 35.511719 84.125 L 42.347656 85.492188 L 52.851562 87.59375 "/>
<path style=" stroke:none;fill-rule:nonzero;fill:rgb(66.668701%,69.799805%,74.119568%);fill-opacity:1;" d="M 59.789062 87.59375 L 59.789062 108.402344 L 52.851562 108.402344 L 52.851562 87.59375 L 59.789062 87.59375 "/>
<path style=" stroke:none;fill-rule:nonzero;fill:rgb(30.979919%,75.689697%,91.369629%);fill-opacity:1;" d="M 70.296875 85.492188 L 59.789062 87.59375 L 56.320312 87.59375 C 59.199219 87.59375 61.523438 85.269531 61.523438 82.390625 C 61.523438 81.800781 61.402344 81.257812 61.230469 80.722656 C 64.847656 81.109375 68.046875 82.878906 70.296875 85.492188 "/>
<path style=" stroke:none;fill-rule:nonzero;fill:rgb(30.979919%,75.689697%,91.369629%);fill-opacity:1;" d="M 52.851562 87.59375 L 42.347656 85.492188 C 44.59375 82.878906 47.792969 81.109375 51.410156 80.722656 C 51.242188 81.257812 51.117188 81.800781 51.117188 82.390625 C 51.117188 85.269531 53.441406 87.59375 56.320312 87.59375 L 52.851562 87.59375 "/>
<path style=" stroke:none;fill-rule:nonzero;fill:rgb(94.119263%,81.568909%,70.588684%);fill-opacity:1;" d="M 78.863281 91.0625 C 79.820312 91.0625 80.597656 91.839844 80.597656 92.792969 L 80.597656 99.730469 C 80.597656 100.6875 79.820312 101.464844 78.863281 101.464844 L 77.128906 101.464844 C 75.21875 101.464844 73.664062 99.90625 73.664062 97.996094 L 73.664062 94.527344 C 73.664062 92.625 75.21875 91.0625 77.128906 91.0625 L 78.863281 91.0625 "/>
<path style=" stroke:none;fill-rule:nonzero;fill:rgb(94.119263%,81.568909%,70.588684%);fill-opacity:1;" d="M 38.980469 94.527344 L 38.980469 97.996094 C 38.980469 99.90625 37.421875 101.464844 35.511719 101.464844 L 33.777344 101.464844 C 32.824219 101.464844 32.042969 100.6875 32.042969 99.730469 L 32.042969 92.792969 C 32.042969 91.839844 32.824219 91.0625 33.777344 91.0625 L 35.511719 91.0625 C 37.421875 91.0625 38.980469 92.625 38.980469 94.527344 "/>
<path style=" stroke:none;fill-rule:nonzero;fill:rgb(94.119263%,81.568909%,70.588684%);fill-opacity:1;" d="M 59.789062 80.65625 C 60.277344 80.65625 60.757812 80.675781 61.230469 80.722656 C 61.402344 81.257812 61.523438 81.800781 61.523438 82.390625 C 61.523438 85.269531 59.199219 87.59375 56.320312 87.59375 C 53.441406 87.59375 51.117188 85.269531 51.117188 82.390625 C 51.117188 81.800781 51.242188 81.257812 51.410156 80.722656 C 51.882812 80.675781 52.363281 80.65625 52.851562 80.65625 L 59.789062 80.65625 "/>
<path style=" stroke:none;fill-rule:nonzero;fill:rgb(94.119263%,81.568909%,70.588684%);fill-opacity:1;" d="M 44.183594 78.753906 L 44.183594 73.71875 C 44.183594 69.886719 41.078125 66.78125 37.246094 66.78125 L 33.242188 66.78125 C 32.824219 65.671875 32.53125 64.515625 32.335938 63.316406 C 32.144531 62.183594 32.042969 61.023438 32.042969 59.847656 L 32.042969 45.972656 C 32.042969 44.0625 33.601562 42.503906 35.511719 42.503906 L 77.128906 42.503906 C 79.039062 42.503906 80.597656 44.0625 80.597656 45.972656 L 80.597656 59.847656 C 80.597656 61.023438 80.496094 62.183594 80.308594 63.316406 C 80.109375 64.515625 79.820312 65.671875 79.398438 66.78125 L 75.394531 66.78125 C 71.5625 66.78125 68.460938 69.886719 68.460938 73.71875 L 68.460938 78.753906 L 68.480469 78.765625 C 65.824219 79.980469 62.890625 80.65625 59.789062 80.65625 L 52.851562 80.65625 C 49.75 80.65625 46.816406 79.980469 44.160156 78.765625 L 44.183594 78.753906 "/>
<path style=" stroke:none;fill-rule:nonzero;fill:rgb(94.119263%,81.568909%,70.588684%);fill-opacity:1;" d="M 87.535156 52.910156 L 87.535156 59.847656 C 87.535156 61.75 85.976562 63.316406 84.066406 63.316406 L 80.308594 63.316406 C 80.496094 62.183594 80.597656 61.023438 80.597656 59.847656 L 80.597656 49.441406 L 84.066406 49.441406 C 85.976562 49.441406 87.535156 51 87.535156 52.910156 "/>
<path style=" stroke:none;fill-rule:nonzero;fill:rgb(94.119263%,81.568909%,70.588684%);fill-opacity:1;" d="M 32.335938 63.316406 L 28.574219 63.316406 C 26.664062 63.316406 25.105469 61.75 25.105469 59.847656 L 25.105469 52.910156 C 25.105469 51 26.664062 49.441406 28.574219 49.441406 L 32.042969 49.441406 L 32.042969 59.847656 C 32.042969 61.023438 32.144531 62.183594 32.335938 63.316406 "/>
<path style=" stroke:none;fill-rule:nonzero;fill:rgb(58.81958%,62.348938%,66.668701%);fill-opacity:1;" d="M 73.664062 52.910156 L 73.664062 54.644531 C 73.664062 55.597656 72.882812 56.378906 71.929688 56.378906 L 64.992188 56.378906 C 64.035156 56.378906 63.257812 55.597656 63.257812 54.644531 L 63.257812 52.910156 C 63.257812 51 64.816406 49.441406 66.726562 49.441406 L 70.195312 49.441406 C 72.105469 49.441406 73.664062 51 73.664062 52.910156 "/>
<path style=" stroke:none;fill-rule:nonzero;fill:rgb(58.81958%,62.348938%,66.668701%);fill-opacity:1;" d="M 49.382812 52.910156 L 49.382812 54.644531 C 49.382812 55.597656 48.605469 56.378906 47.652344 56.378906 L 40.714844 56.378906 C 39.757812 56.378906 38.980469 55.597656 38.980469 54.644531 L 38.980469 52.910156 C 38.980469 51 40.539062 49.441406 42.449219 49.441406 L 45.917969 49.441406 C 47.828125 49.441406 49.382812 51 49.382812 52.910156 "/>
<path style=" stroke:none;fill-rule:nonzero;fill:rgb(100%,50.979614%,43.139648%);fill-opacity:1;" d="M 68.460938 73.71875 C 68.460938 69.886719 71.5625 66.78125 75.394531 66.78125 L 79.398438 66.78125 C 77.53125 72.109375 73.5625 76.421875 68.480469 78.765625 L 68.460938 78.753906 L 68.460938 73.71875 "/>
<path style=" stroke:none;fill-rule:nonzero;fill:rgb(100%,50.979614%,43.139648%);fill-opacity:1;" d="M 44.183594 73.71875 L 44.183594 78.753906 L 44.160156 78.765625 C 39.082031 76.421875 35.113281 72.109375 33.242188 66.78125 L 37.246094 66.78125 C 41.078125 66.78125 44.183594 69.886719 44.183594 73.71875 "/>
<path style=" stroke:none;fill-rule:nonzero;fill:rgb(100%,91.758728%,65.489197%);fill-opacity:1;" d="M 54.121094 4.476562 C 45.726562 5.410156 38.769531 12.035156 37.488281 20.394531 C 36.378906 27.554688 39.257812 34.09375 44.25 38.191406 C 45.660156 39.328125 46.714844 40.824219 47.25 42.503906 L 65.390625 42.503906 C 65.914062 40.839844 66.9375 39.371094 68.316406 38.238281 C 72.640625 34.757812 75.394531 29.410156 75.394531 23.429688 C 75.394531 12.179688 65.648438 3.195312 54.121094 4.476562 "/>
<path style=" stroke:none;fill-rule:nonzero;fill:rgb(98.81897%,84.309387%,43.919373%);fill-opacity:1;" d="M 65.703125 20.984375 C 66.347656 21.609375 66.726562 22.476562 66.726562 23.429688 C 66.726562 25.339844 65.167969 26.898438 63.257812 26.898438 L 59.335938 26.898438 L 59.578125 23.207031 C 59.703125 21.382812 61.210938 19.960938 63.035156 19.960938 L 63.257812 19.960938 C 64.210938 19.960938 65.078125 20.339844 65.703125 20.984375 "/>
<path style=" stroke:none;fill-rule:nonzero;fill:rgb(98.81897%,84.309387%,43.919373%);fill-opacity:1;" d="M 53.0625 23.207031 L 53.308594 26.898438 L 49.382812 26.898438 C 48.429688 26.898438 47.5625 26.519531 46.9375 25.875 C 46.296875 25.253906 45.917969 24.386719 45.917969 23.429688 C 45.917969 21.519531 47.472656 19.960938 49.382812 19.960938 L 49.609375 19.960938 C 51.429688 19.960938 52.941406 21.382812 53.0625 23.207031 "/>
<path style=" stroke:none;fill-rule:nonzero;fill:rgb(0%,0%,0%);fill-opacity:1;" d="M 56.320312 71.984375 C 54.410156 71.984375 52.851562 70.425781 52.851562 68.515625 L 49.382812 68.515625 C 49.382812 72.34375 52.492188 75.453125 56.320312 75.453125 C 60.148438 75.453125 63.257812 72.34375 63.257812 68.515625 L 59.789062 68.515625 C 59.789062 70.425781 58.230469 71.984375 56.320312 71.984375 "/>
<path style=" stroke:none;fill-rule:nonzero;fill:rgb(0%,0%,0%);fill-opacity:1;" d="M 40.714844 54.644531 L 40.714844 52.910156 C 40.714844 51.957031 41.492188 51.175781 42.449219 51.175781 L 45.917969 51.175781 C 46.871094 51.175781 47.652344 51.957031 47.652344 52.910156 L 47.652344 54.644531 Z M 51.117188 54.644531 L 51.117188 52.910156 C 51.117188 50.039062 48.789062 47.707031 45.917969 47.707031 L 42.449219 47.707031 C 39.574219 47.707031 37.246094 50.039062 37.246094 52.910156 L 37.246094 54.644531 C 37.246094 56.554688 38.804688 58.113281 40.714844 58.113281 L 47.652344 58.113281 C 49.5625 58.113281 51.117188 56.554688 51.117188 54.644531 "/>
<path style=" stroke:none;fill-rule:nonzero;fill:rgb(0%,0%,0%);fill-opacity:1;" d="M 64.992188 52.910156 C 64.992188 51.957031 65.769531 51.175781 66.726562 51.175781 L 70.195312 51.175781 C 71.148438 51.175781 71.929688 51.957031 71.929688 52.910156 L 71.929688 54.644531 L 64.992188 54.644531 Z M 64.992188 58.113281 L 71.929688 58.113281 C 73.839844 58.113281 75.394531 56.554688 75.394531 54.644531 L 75.394531 52.910156 C 75.394531 50.039062 73.066406 47.707031 70.195312 47.707031 L 66.726562 47.707031 C 63.855469 47.707031 61.523438 50.039062 61.523438 52.910156 L 61.523438 54.644531 C 61.523438 56.554688 63.082031 58.113281 64.992188 58.113281 "/>
<g clip-path="url(#clip1)" clip-rule="nonzero">
<path style=" stroke:none;fill-rule:nonzero;fill:rgb(0%,0%,0%);fill-opacity:1;" d="M 70.195312 75.8125 L 70.195312 73.71875 C 70.195312 70.847656 72.523438 68.515625 75.394531 68.515625 L 76.757812 68.515625 C 75.234375 71.484375 72.972656 73.996094 70.195312 75.8125 Z M 52.851562 78.921875 C 50.40625 78.921875 48.070312 78.441406 45.917969 77.59375 L 45.917969 73.71875 C 45.917969 68.9375 42.027344 65.050781 37.246094 65.050781 L 34.515625 65.050781 C 34.046875 63.390625 33.777344 61.648438 33.777344 59.847656 L 33.777344 45.972656 C 33.777344 45.019531 34.558594 44.238281 35.511719 44.238281 L 54.585938 44.238281 L 54.585938 65.050781 L 58.054688 65.050781 L 58.054688 44.238281 L 77.128906 44.238281 C 78.085938 44.238281 78.863281 45.019531 78.863281 45.972656 L 78.863281 59.847656 C 78.863281 61.648438 78.59375 63.390625 78.125 65.050781 L 75.394531 65.050781 C 70.613281 65.050781 66.726562 68.9375 66.726562 73.71875 L 66.726562 77.59375 C 64.570312 78.441406 62.234375 78.921875 59.789062 78.921875 Z M 62.621094 85.261719 C 62.953125 84.53125 63.140625 83.738281 63.203125 82.898438 C 64.394531 83.25 65.511719 83.777344 66.542969 84.476562 Z M 75.394531 89.644531 C 73.382812 90.363281 71.929688 92.273438 71.929688 94.527344 L 71.929688 97.996094 C 71.929688 100.253906 73.382812 102.164062 75.394531 102.882812 L 75.394531 103.511719 L 61.523438 106.289062 L 61.523438 89.015625 L 75.394531 86.238281 Z M 78.863281 99.730469 L 77.128906 99.730469 C 76.175781 99.730469 75.394531 98.953125 75.394531 97.996094 L 75.394531 94.527344 C 75.394531 93.574219 76.175781 92.792969 77.128906 92.792969 L 78.863281 92.792969 Z M 37.246094 102.882812 C 39.257812 102.164062 40.714844 100.253906 40.714844 97.996094 L 40.714844 94.527344 C 40.714844 92.273438 39.257812 90.363281 37.246094 89.644531 L 37.246094 86.238281 L 51.117188 89.015625 L 51.117188 106.289062 L 37.246094 103.511719 Z M 33.777344 92.792969 L 35.511719 92.792969 C 36.46875 92.792969 37.246094 93.574219 37.246094 94.527344 L 37.246094 97.996094 C 37.246094 98.953125 36.46875 99.730469 35.511719 99.730469 L 33.777344 99.730469 Z M 49.4375 82.898438 C 49.5 83.738281 49.691406 84.53125 50.019531 85.261719 L 46.097656 84.476562 C 47.128906 83.777344 48.246094 83.25 49.4375 82.898438 Z M 54.585938 89.328125 L 58.054688 89.328125 L 58.054688 106.667969 L 54.585938 106.667969 Z M 59.789062 82.390625 C 59.789062 84.300781 58.230469 85.859375 56.320312 85.859375 C 54.410156 85.859375 52.851562 84.300781 52.851562 82.390625 Z M 35.882812 68.515625 L 37.246094 68.515625 C 40.117188 68.515625 42.449219 70.847656 42.449219 73.71875 L 42.449219 75.8125 C 39.671875 73.996094 37.410156 71.484375 35.882812 68.515625 Z M 28.574219 61.582031 C 27.621094 61.582031 26.839844 60.800781 26.839844 59.847656 L 26.839844 52.910156 C 26.839844 51.957031 27.621094 51.175781 28.574219 51.175781 L 30.308594 51.175781 L 30.308594 59.847656 C 30.308594 60.4375 30.355469 61.003906 30.398438 61.582031 Z M 51.464844 25.164062 L 49.382812 25.164062 C 48.429688 25.164062 47.652344 24.386719 47.652344 23.429688 C 47.652344 22.476562 48.429688 21.695312 49.382812 21.695312 L 49.609375 21.695312 C 50.515625 21.695312 51.28125 22.40625 51.34375 23.316406 Z M 61.179688 25.164062 L 61.300781 23.316406 C 61.359375 22.40625 62.125 21.695312 63.035156 21.695312 L 63.257812 21.695312 C 64.210938 21.695312 64.992188 22.476562 64.992188 23.429688 C 64.992188 24.386719 64.210938 25.164062 63.257812 25.164062 Z M 55.167969 28.632812 L 57.472656 28.632812 L 56.667969 40.773438 L 55.976562 40.773438 Z M 45.347656 36.835938 C 40.539062 32.90625 38.242188 26.859375 39.195312 20.660156 C 40.355469 13.132812 46.714844 7.050781 54.316406 6.203125 C 59.335938 5.640625 64.152344 7.167969 67.878906 10.5 C 71.554688 13.792969 73.664062 18.5 73.664062 23.429688 C 73.664062 28.679688 71.320312 33.585938 67.21875 36.898438 C 65.914062 37.960938 64.898438 39.28125 64.210938 40.773438 L 60.140625 40.773438 L 60.949219 28.632812 L 63.257812 28.632812 C 66.128906 28.632812 68.460938 26.300781 68.460938 23.429688 C 68.460938 20.558594 66.128906 18.226562 63.257812 18.226562 L 63.035156 18.226562 C 60.304688 18.226562 58.027344 20.363281 57.84375 23.085938 L 57.703125 25.164062 L 54.9375 25.164062 L 54.796875 23.085938 C 54.613281 20.363281 52.339844 18.226562 49.609375 18.226562 L 49.382812 18.226562 C 46.511719 18.226562 44.183594 20.558594 44.183594 23.429688 C 44.183594 26.300781 46.511719 28.632812 49.382812 28.632812 L 51.695312 28.632812 L 52.5 40.773438 L 48.410156 40.773438 C 47.71875 39.273438 46.683594 37.933594 45.347656 36.835938 Z M 84.066406 51.175781 C 85.023438 51.175781 85.800781 51.957031 85.800781 52.910156 L 85.800781 59.847656 C 85.800781 60.800781 85.023438 61.582031 84.066406 61.582031 L 82.246094 61.582031 C 82.285156 61.003906 82.332031 60.4375 82.332031 59.847656 L 82.332031 51.175781 Z M 81.703125 65.050781 L 84.066406 65.050781 C 86.9375 65.050781 89.269531 62.71875 89.269531 59.847656 L 89.269531 52.910156 C 89.269531 50.039062 86.9375 47.707031 84.066406 47.707031 L 82.332031 47.707031 L 82.332031 45.972656 C 82.332031 43.101562 80.003906 40.773438 77.128906 40.773438 L 68.261719 40.773438 C 68.601562 40.34375 68.96875 39.945312 69.402344 39.59375 C 74.3125 35.625 77.128906 29.730469 77.128906 23.429688 C 77.128906 17.515625 74.597656 11.859375 70.1875 7.917969 C 65.785156 3.976562 59.855469 2.097656 53.929688 2.757812 C 44.796875 3.773438 37.164062 11.082031 35.769531 20.132812 C 34.617188 27.554688 37.382812 34.804688 43.152344 39.523438 C 43.605469 39.898438 44.007812 40.324219 44.359375 40.773438 L 35.511719 40.773438 C 32.640625 40.773438 30.308594 43.101562 30.308594 45.972656 L 30.308594 47.707031 L 28.574219 47.707031 C 25.703125 47.707031 23.371094 50.039062 23.371094 52.910156 L 23.371094 54.644531 L 16.4375 54.644531 L 16.4375 44.238281 L 12.96875 44.238281 L 12.96875 54.644531 L 9.5 54.644531 L 9.5 47.707031 L 6.03125 47.707031 L 6.03125 54.644531 L 2.5625 54.644531 L 2.5625 58.113281 L 23.371094 58.113281 L 23.371094 59.847656 C 23.371094 62.71875 25.703125 65.050781 28.574219 65.050781 L 30.9375 65.050781 C 32.695312 72.4375 38.085938 78.414062 45.117188 80.996094 C 43.890625 81.699219 42.761719 82.578125 41.75 83.601562 L 33.777344 82.011719 L 33.777344 89.328125 C 31.867188 89.328125 30.308594 90.882812 30.308594 92.792969 L 30.308594 99.730469 C 30.308594 101.640625 31.867188 103.199219 33.777344 103.199219 L 33.777344 106.355469 L 52.515625 110.101562 L 59.957031 110.136719 L 78.863281 106.355469 L 78.863281 103.199219 C 80.773438 103.199219 82.332031 101.640625 82.332031 99.730469 L 82.332031 92.792969 C 82.332031 90.882812 80.773438 89.328125 78.863281 89.328125 L 78.863281 82.011719 L 70.890625 83.601562 C 69.882812 82.578125 68.75 81.699219 67.523438 80.996094 C 74.554688 78.414062 79.949219 72.4375 81.703125 65.050781 "/>
</g>
<g clip-path="url(#clip2)" clip-rule="nonzero">
<path style=" stroke:none;fill-rule:nonzero;fill:rgb(0%,0%,0%);fill-opacity:1;" d="M 101.40625 61.582031 C 98.535156 61.582031 96.207031 59.25 96.207031 56.378906 C 96.207031 53.507812 98.535156 51.175781 101.40625 51.175781 C 104.28125 51.175781 106.609375 53.507812 106.609375 56.378906 C 106.609375 59.25 104.28125 61.582031 101.40625 61.582031 Z M 101.40625 47.707031 C 96.625 47.707031 92.738281 51.597656 92.738281 56.378906 C 92.738281 61.160156 96.625 65.050781 101.40625 65.050781 C 106.191406 65.050781 110.078125 61.160156 110.078125 56.378906 C 110.078125 51.597656 106.191406 47.707031 101.40625 47.707031 "/>
</g>
<path style=" stroke:none;fill-rule:nonzero;fill:rgb(0%,0%,0%);fill-opacity:1;" d="M 101.40625 54.644531 C 100.453125 54.644531 99.675781 55.421875 99.675781 56.378906 C 99.675781 57.332031 100.453125 58.113281 101.40625 58.113281 C 102.363281 58.113281 103.140625 57.332031 103.140625 56.378906 C 103.140625 55.421875 102.363281 54.644531 101.40625 54.644531 "/>
<path style=" stroke:none;fill-rule:nonzero;fill:rgb(0%,0%,0%);fill-opacity:1;" d="M 84.71875 93.609375 L 86.824219 96.363281 C 95.773438 89.53125 102.234375 79.796875 105.023438 68.949219 L 101.664062 68.082031 C 99.070312 78.175781 93.050781 87.242188 84.71875 93.609375 "/>
<path style=" stroke:none;fill-rule:nonzero;fill:rgb(0%,0%,0%);fill-opacity:1;" d="M 9.765625 61.390625 L 6.316406 61.757812 C 7.765625 75.359375 14.84375 87.953125 25.75 96.308594 L 27.855469 93.558594 C 17.710938 85.777344 11.113281 74.050781 9.765625 61.390625 "/>
<path style=" stroke:none;fill-rule:nonzero;fill:rgb(0%,0%,0%);fill-opacity:1;" d="M 34.5625 14.910156 L 32.953125 11.839844 C 20.378906 18.445312 11.144531 30.097656 7.617188 43.804688 L 10.976562 44.671875 C 14.261719 31.910156 22.859375 21.058594 34.5625 14.910156 "/>
<path style=" stroke:none;fill-rule:nonzero;fill:rgb(0%,0%,0%);fill-opacity:1;" d="M 101.664062 44.671875 L 105.023438 43.804688 C 101.496094 30.101562 92.269531 18.453125 79.699219 11.839844 L 78.085938 14.914062 C 89.789062 21.066406 98.386719 31.917969 101.664062 44.671875 "/>
</g>
</svg>
